<svg width="30" height="30" viewBox="0 0 30 30" fill="none" xmlns="http://www.w3.org/2000/svg">
<path d="M2.8125 3.75H4.545C5.1825 3.75 5.73875 4.17875 5.90375 4.79375L6.3825 6.59M9.375 17.8125C8.38044 17.8125 7.42661 18.2076 6.72335 18.9108C6.02009 19.6141 5.625 20.5679 5.625 21.5625H25.3125M9.375 17.8125H23.3975C24.7988 14.9375 26.0225 11.9575 27.0525 8.89C20.3024 7.16894 13.3458 6.39486 6.3825 6.59M9.375 17.8125L6.3825 6.59M7.5 25.3125C7.5 25.5611 7.40123 25.7996 7.22541 25.9754C7.0496 26.1512 6.81114 26.25 6.5625 26.25C6.31386 26.25 6.0754 26.1512 5.89959 25.9754C5.72377 25.7996 5.625 25.5611 5.625 25.3125C5.625 25.0639 5.72377 24.8254 5.89959 24.6496C6.0754 24.4738 6.31386 24.375 6.5625 24.375C6.81114 24.375 7.0496 24.4738 7.22541 24.6496C7.40123 24.8254 7.5 25.0639 7.5 25.3125V25.3125ZM23.4375 25.3125C23.4375 25.5611 23.3387 25.7996 23.1629 25.9754C22.9871 26.1512 22.7486 26.25 22.5 26.25C22.2514 26.25 22.0129 26.1512 21.8371 25.9754C21.6613 25.7996 21.5625 25.5611 21.5625 25.3125C21.5625 25.0639 21.6613 24.8254 21.8371 24.6496C22.0129 24.4738 22.2514 24.375 22.5 24.375C22.7486 24.375 22.9871 24.4738 23.1629 24.6496C23.3387 24.8254 23.4375 25.0639 23.4375 25.3125V25.3125Z" stroke="#918F8F" stroke-width="1.5" stroke-linecap="round" stroke-linejoin="round"/>
</svg>
