<svg width="41" height="41" viewBox="0 0 41 41" fill="none" xmlns="http://www.w3.org/2000/svg">
<path d="M24.6101 30.5322C24.3168 30.5362 24.1005 30.3257 23.9614 29.9009C23.93 29.5547 23.7909 29.1298 23.544 28.6265C23.3264 28.3094 23.0791 27.7794 22.8023 27.0364C22.6902 26.6379 22.359 25.8157 21.8087 24.5697C21.0929 22.926 20.6658 21.9184 20.5274 21.5469L15.1622 30.0207C14.9277 30.4239 14.5571 30.629 14.0505 30.6359C13.5439 30.6428 13.2877 30.4329 13.2819 30.0063C13.2786 29.7663 13.3942 29.4447 13.6288 29.0415L14.7247 27.2664L15.9768 25.2091C17.5163 22.708 18.7171 20.7981 19.5792 19.4796L19.3311 18.8829C19.0539 18.1133 18.8876 17.6488 18.8321 17.4896C18.4713 16.4544 18.1665 15.6185 17.9178 14.9818L17.5848 14.0262C17.3909 13.4955 17.2799 13.177 17.2518 13.0707L16.8777 12.0357C16.8492 11.9027 16.8074 11.7699 16.7522 11.6373C16.6967 11.4781 16.6547 11.332 16.6263 11.199C16.5167 10.9871 16.4605 10.7746 16.4576 10.5612C16.4554 10.4013 16.5597 10.2265 16.7705 10.0369C16.9809 9.82072 17.2327 9.71062 17.526 9.70663C18.0326 9.69973 18.4384 10.1209 18.7433 10.9702C18.9099 11.448 19.0214 11.8065 19.078 12.0457C19.1934 12.6842 19.4028 13.3748 19.7062 14.1174C20.0393 15.0729 20.3157 15.7892 20.5356 16.2663C20.6192 16.5318 20.7713 16.9298 20.9919 17.4602C21.6213 16.6782 22.4195 15.5606 23.3865 14.1073L24.3668 12.6538C25.0207 11.7115 25.3739 11.2133 25.4265 11.1593C25.8203 10.7005 26.1893 10.3755 26.5334 10.1841C26.7456 10.1012 26.9317 10.0587 27.0917 10.0565C27.5194 10.1307 27.7356 10.3411 27.7403 10.6877C27.7447 11.0077 27.682 11.3019 27.5523 11.5704C27.3967 11.8925 27.0568 12.3905 26.5326 13.0644C26.3225 13.3073 25.7464 14.0885 24.8043 15.4081C24.8043 15.4081 24.6476 15.6503 24.3341 16.1346C23.4983 17.4261 22.6871 18.5706 21.9006 19.568C23.4983 23.3066 24.381 25.4548 24.5486 26.0126C24.7991 26.7826 25.0746 27.4322 25.3752 27.9615C25.6754 28.4641 25.8291 28.9821 25.8363 29.5154C25.787 29.8094 25.6436 30.0514 25.4062 30.2413C25.1954 30.4309 24.93 30.5278 24.6101 30.5322Z" fill="#AE8CF6"/>
<circle cx="20.2703" cy="20.2703" r="19" transform="rotate(-0.779665 20.2703 20.2703)" stroke="#AE8CF7" stroke-width="2"/>
</svg>
