<svg width="30" height="34" viewBox="0 0 30 34" fill="none" xmlns="http://www.w3.org/2000/svg">
<path d="M14.9992 19.0492C18.0762 19.0492 20.5706 15.8421 20.5706 11.8859C20.5706 7.92976 18.0762 4.72266 14.9992 4.72266C11.9221 4.72266 9.42773 7.92976 9.42773 11.8859C9.42773 15.8421 11.9221 19.0492 14.9992 19.0492Z" stroke="#918F8F" stroke-width="1.5"/>
<path d="M21.1328 19.0492H21.5646C22.4614 19.0494 23.3272 19.3045 23.9994 19.7667C24.6716 20.2289 25.104 20.8663 25.2152 21.5592L25.6948 24.5429C25.7379 24.8117 25.7072 25.0846 25.6045 25.3434C25.5019 25.6022 25.3297 25.8411 25.0994 26.0442C24.8691 26.2472 24.586 26.4098 24.2689 26.5211C23.9517 26.6325 23.6078 26.6901 23.2598 26.69H6.73903C6.39113 26.6901 6.04718 26.6325 5.73003 26.5211C5.41288 26.4098 5.12977 26.2472 4.89949 26.0442C4.66921 25.8411 4.49703 25.6022 4.39438 25.3434C4.29173 25.0846 4.26095 24.8117 4.30409 24.5429L4.78249 21.5592C4.89375 20.866 5.32642 20.2283 5.99914 19.7661C6.67187 19.3039 7.53831 19.0489 8.43552 19.0492H8.86608" stroke="#918F8F" stroke-width="1.5" stroke-linecap="round" stroke-linejoin="round"/>
</svg>
