<svg width="42" height="35" viewBox="0 0 42 35" fill="none" xmlns="http://www.w3.org/2000/svg">
<path d="M9.1875 5.83333H32.8125C34.2652 5.83325 35.663 6.29643 36.7189 7.12785C37.7749 7.95927 38.409 9.0959 38.4913 10.3046L38.5 10.5729V24.4271C38.5001 25.6377 37.9443 26.8025 36.9466 27.6824C35.9489 28.5624 34.5849 29.0908 33.1345 29.1594L32.8125 29.1667H9.1875C7.73476 29.1667 6.33705 28.7036 5.2811 27.8721C4.22514 27.0407 3.591 25.9041 3.50875 24.6954L3.5 24.4271V10.5729C3.4999 9.36229 4.05572 8.19754 5.05343 7.31758C6.05113 6.43761 7.41509 5.90916 8.8655 5.84062L9.1875 5.83333ZM35.875 13.669L21.6125 19.9252C21.4515 19.9961 21.2745 20.0383 21.0928 20.0491C20.9111 20.0599 20.7287 20.039 20.5573 19.9879L20.3893 19.9267L6.125 13.6704V24.4271C6.12503 25.0676 6.41405 25.6846 6.93469 26.1558C7.45533 26.6269 8.16952 26.9177 8.9355 26.9704L9.1875 26.9792H32.8125C33.5814 26.9791 34.3221 26.7381 34.8875 26.3039C35.4529 25.8697 35.8017 25.2742 35.8645 24.6356L35.875 24.4271V13.669ZM32.8125 8.02083H9.1875C8.41892 8.02085 7.67844 8.2617 7.11307 8.69557C6.54769 9.12944 6.19874 9.7246 6.1355 10.3629L6.125 10.5729V11.1985L21 17.7217L35.875 11.1971V10.5729C35.8749 9.93219 35.5857 9.31494 35.0647 8.84375C34.5437 8.37257 33.829 8.08193 33.0628 8.02958L32.8125 8.02083Z" fill="#8720D8"/>
</svg>
