<svg width="26" height="26" viewBox="0 0 26 26" fill="none" xmlns="http://www.w3.org/2000/svg">
<path d="M15.6667 6.33333H15.68M11.6667 22.3333H5C3.93913 22.3333 2.92172 21.9119 2.17157 21.1618C1.42143 20.4116 1 19.3942 1 18.3333V5C1 3.93913 1.42143 2.92172 2.17157 2.17157C2.92172 1.42143 3.93913 1 5 1H18.3333C19.3942 1 20.4116 1.42143 21.1618 2.17157C21.9119 2.92172 22.3333 3.93913 22.3333 5V11.6667" stroke="#481BA7" stroke-width="1.5" stroke-linecap="round" stroke-linejoin="round"/>
<path d="M1 15.6664L6.33333 10.3331C7.57067 9.1424 9.096 9.1424 10.3333 10.3331L15.6667 15.6664" stroke="#481BA7" stroke-width="1.5" stroke-linecap="round" stroke-linejoin="round"/>
<path d="M14.334 14.3331L15.6673 12.9997C16.49 12.2091 17.438 11.9424 18.346 12.2024M17.0007 20.9997H25.0007M21.0007 16.9997V24.9997" stroke="#481BA7" stroke-width="1.5" stroke-linecap="round" stroke-linejoin="round"/>
</svg>
